<svg width="1280" height="300" viewBox="0 0 1280 300" fill="none" xmlns="http://www.w3.org/2000/svg">
  <defs>
    <linearGradient id="bg" x1="40" y1="24" x2="1240" y2="276" gradientUnits="userSpaceOnUse">
      <stop stop-color="#020617"/>
      <stop offset="1" stop-color="#0F172A"/>
    </linearGradient>
    <linearGradient id="accent" x1="88" y1="70" x2="612" y2="236" gradientUnits="userSpaceOnUse">
      <stop stop-color="#22C55E" stop-opacity="0.22"/>
      <stop offset="1" stop-color="#06B6D4" stop-opacity="0.04"/>
    </linearGradient>
    <filter id="blur" x="0" y="0" width="1280" height="300" filterUnits="userSpaceOnUse" color-interpolation-filters="sRGB">
      <feGaussianBlur stdDeviation="34"/>
    </filter>
  </defs>

  <rect x="16" y="16" width="1248" height="268" rx="28" fill="url(#bg)"/>
  <rect x="16.5" y="16.5" width="1247" height="267" rx="27.5" stroke="#1E293B"/>

  <g opacity="0.26">
    <path d="M56 84H1224" stroke="#1E293B"/>
    <path d="M56 136H1224" stroke="#1E293B"/>
    <path d="M56 188H1224" stroke="#1E293B"/>
    <path d="M56 240H1224" stroke="#1E293B"/>
    <path d="M160 48V252" stroke="#1E293B"/>
    <path d="M316 48V252" stroke="#1E293B"/>
    <path d="M472 48V252" stroke="#1E293B"/>
    <path d="M628 48V252" stroke="#1E293B"/>
    <path d="M784 48V252" stroke="#1E293B"/>
    <path d="M940 48V252" stroke="#1E293B"/>
    <path d="M1096 48V252" stroke="#1E293B"/>
  </g>

  <g filter="url(#blur)" opacity="0.72">
    <circle cx="308" cy="204" r="78" fill="#22C55E"/>
    <circle cx="1076" cy="72" r="64" fill="#06B6D4"/>
  </g>

  <rect x="56" y="56" width="604" height="188" rx="24" fill="url(#accent)" stroke="#134E4A"/>
  <text x="88" y="96" fill="#22C55E" font-size="17" font-family="ui-monospace, SFMono-Regular, Menlo, Monaco, Consolas, Liberation Mono, monospace" letter-spacing="2.2">CONTROL PLANE / PROFILE AS CODE</text>
  <text x="88" y="148" fill="#F8FAFC" font-size="42" font-weight="700" font-family="system-ui, -apple-system, BlinkMacSystemFont, Segoe UI, sans-serif">Profile as config</text>
  <text x="88" y="184" fill="#94A3B8" font-size="18" font-family="system-ui, -apple-system, BlinkMacSystemFont, Segoe UI, sans-serif">SRE-minded software engineer based in Saitama, operating in JST.</text>
  <text x="88" y="214" fill="#94A3B8" font-size="18" font-family="system-ui, -apple-system, BlinkMacSystemFont, Segoe UI, sans-serif">Focused on cloud platforms, observability, and automation.</text>

  <rect x="88" y="226" width="96" height="28" rx="14" fill="#0F172A" stroke="#1E293B"/>
  <rect x="194" y="226" width="132" height="28" rx="14" fill="#0F172A" stroke="#1E293B"/>
  <rect x="336" y="226" width="116" height="28" rx="14" fill="#0F172A" stroke="#1E293B"/>
  <rect x="462" y="226" width="70" height="28" rx="14" fill="#0F172A" stroke="#1E293B"/>
  <rect x="542" y="226" width="92" height="28" rx="14" fill="#0F172A" stroke="#1E293B"/>
  <text x="114" y="244" fill="#E2E8F0" font-size="12" font-family="ui-monospace, SFMono-Regular, Menlo, Monaco, Consolas, Liberation Mono, monospace">AWS</text>
  <text x="222" y="244" fill="#E2E8F0" font-size="12" font-family="ui-monospace, SFMono-Regular, Menlo, Monaco, Consolas, Liberation Mono, monospace">KUBERNETES</text>
  <text x="364" y="244" fill="#E2E8F0" font-size="12" font-family="ui-monospace, SFMono-Regular, Menlo, Monaco, Consolas, Liberation Mono, monospace">TERRAFORM</text>
  <text x="486" y="244" fill="#E2E8F0" font-size="12" font-family="ui-monospace, SFMono-Regular, Menlo, Monaco, Consolas, Liberation Mono, monospace">GO</text>
  <text x="568" y="244" fill="#E2E8F0" font-size="12" font-family="ui-monospace, SFMono-Regular, Menlo, Monaco, Consolas, Liberation Mono, monospace">PYTHON</text>

  <rect x="712" y="56" width="500" height="188" rx="24" fill="#020617" stroke="#1E293B"/>
  <rect x="744" y="88" width="210" height="58" rx="16" fill="#0F172A" stroke="#1E293B"/>
  <rect x="970" y="88" width="210" height="58" rx="16" fill="#0F172A" stroke="#1E293B"/>
  <rect x="744" y="158" width="210" height="58" rx="16" fill="#0F172A" stroke="#1E293B"/>
  <rect x="970" y="158" width="210" height="58" rx="16" fill="#0F172A" stroke="#1E293B"/>

  <text x="768" y="112" fill="#64748B" font-size="13" font-family="ui-monospace, SFMono-Regular, Menlo, Monaco, Consolas, Liberation Mono, monospace">base</text>
  <text x="768" y="136" fill="#F8FAFC" font-size="23" font-weight="700" font-family="system-ui, -apple-system, BlinkMacSystemFont, Segoe UI, sans-serif">Saitama / JST</text>

  <text x="994" y="112" fill="#64748B" font-size="13" font-family="ui-monospace, SFMono-Regular, Menlo, Monaco, Consolas, Liberation Mono, monospace">mode</text>
  <text x="994" y="136" fill="#22C55E" font-size="23" font-weight="700" font-family="system-ui, -apple-system, BlinkMacSystemFont, Segoe UI, sans-serif">production-first</text>

  <text x="768" y="182" fill="#64748B" font-size="13" font-family="ui-monospace, SFMono-Regular, Menlo, Monaco, Consolas, Liberation Mono, monospace">focus</text>
  <text x="768" y="206" fill="#F8FAFC" font-size="22" font-weight="700" font-family="system-ui, -apple-system, BlinkMacSystemFont, Segoe UI, sans-serif">aws / k8s / terraform</text>

  <text x="994" y="182" fill="#64748B" font-size="13" font-family="ui-monospace, SFMono-Regular, Menlo, Monaco, Consolas, Liberation Mono, monospace">mission</text>
  <text x="994" y="206" fill="#F8FAFC" font-size="22" font-weight="700" font-family="system-ui, -apple-system, BlinkMacSystemFont, Segoe UI, sans-serif">reduce toil</text>

  <circle cx="744" cy="258" r="4" fill="#22C55E"/>
  <text x="758" y="263" fill="#64748B" font-size="13" font-family="ui-monospace, SFMono-Regular, Menlo, Monaco, Consolas, Liberation Mono, monospace">role: software engineer / stance: sre-minded</text>
</svg>
