<svg width="1280" height="260" viewBox="0 0 1280 260" fill="none" xmlns="http://www.w3.org/2000/svg">
  <defs>
    <linearGradient id="bg" x1="40" y1="24" x2="1240" y2="236" gradientUnits="userSpaceOnUse">
      <stop stop-color="#020617"/>
      <stop offset="1" stop-color="#0F172A"/>
    </linearGradient>
    <filter id="blur" x="0" y="0" width="1280" height="260" filterUnits="userSpaceOnUse" color-interpolation-filters="sRGB">
      <feGaussianBlur stdDeviation="32"/>
    </filter>
  </defs>

  <rect x="16" y="16" width="1248" height="228" rx="28" fill="url(#bg)"/>
  <rect x="16.5" y="16.5" width="1247" height="227" rx="27.5" stroke="#1E293B"/>

  <g opacity="0.24">
    <path d="M56 88H1224" stroke="#1E293B"/>
    <path d="M56 144H1224" stroke="#1E293B"/>
    <path d="M56 200H1224" stroke="#1E293B"/>
    <path d="M192 48V212" stroke="#1E293B"/>
    <path d="M384 48V212" stroke="#1E293B"/>
    <path d="M576 48V212" stroke="#1E293B"/>
    <path d="M768 48V212" stroke="#1E293B"/>
    <path d="M960 48V212" stroke="#1E293B"/>
    <path d="M1152 48V212" stroke="#1E293B"/>
  </g>

  <g filter="url(#blur)" opacity="0.6">
    <circle cx="148" cy="194" r="58" fill="#22C55E"/>
    <circle cx="1112" cy="66" r="52" fill="#06B6D4"/>
  </g>

  <text x="56" y="72" fill="#22C55E" font-size="16" font-family="ui-monospace, SFMono-Regular, Menlo, Monaco, Consolas, Liberation Mono, monospace" letter-spacing="2.1">RELIABILITY LOOP / STEADY STATE ENGINEERING</text>

  <rect x="56" y="102" width="260" height="92" rx="22" fill="#0F172A" stroke="#1E293B"/>
  <rect x="352" y="102" width="260" height="92" rx="22" fill="#0F172A" stroke="#1E293B"/>
  <rect x="648" y="102" width="260" height="92" rx="22" fill="#0F172A" stroke="#1E293B"/>
  <rect x="944" y="102" width="260" height="92" rx="22" fill="#0F172A" stroke="#1E293B"/>

  <path d="M316 148H352" stroke="#22C55E" stroke-width="2"/>
  <path d="M612 148H648" stroke="#22C55E" stroke-width="2"/>
  <path d="M908 148H944" stroke="#22C55E" stroke-width="2"/>
  <path d="M344 142L352 148L344 154" stroke="#22C55E" stroke-width="2"/>
  <path d="M640 142L648 148L640 154" stroke="#22C55E" stroke-width="2"/>
  <path d="M936 142L944 148L936 154" stroke="#22C55E" stroke-width="2"/>

  <circle cx="88" cy="132" r="7" fill="#22C55E"/>
  <circle cx="384" cy="132" r="7" fill="#06B6D4"/>
  <circle cx="680" cy="132" r="7" fill="#F59E0B"/>
  <circle cx="976" cy="132" r="7" fill="#A78BFA"/>

  <text x="104" y="136" fill="#F8FAFC" font-size="26" font-weight="700" font-family="system-ui, -apple-system, BlinkMacSystemFont, Segoe UI, sans-serif">Observe</text>
  <text x="104" y="166" fill="#94A3B8" font-size="15" font-family="system-ui, -apple-system, BlinkMacSystemFont, Segoe UI, sans-serif">User-facing metrics and traces</text>

  <text x="400" y="136" fill="#F8FAFC" font-size="26" font-weight="700" font-family="system-ui, -apple-system, BlinkMacSystemFont, Segoe UI, sans-serif">Decide</text>
  <text x="400" y="166" fill="#94A3B8" font-size="15" font-family="system-ui, -apple-system, BlinkMacSystemFont, Segoe UI, sans-serif">SLO-aware tradeoffs before action</text>

  <text x="696" y="136" fill="#F8FAFC" font-size="26" font-weight="700" font-family="system-ui, -apple-system, BlinkMacSystemFont, Segoe UI, sans-serif">Automate</text>
  <text x="696" y="166" fill="#94A3B8" font-size="15" font-family="system-ui, -apple-system, BlinkMacSystemFont, Segoe UI, sans-serif">Turn repeated ops into tooling</text>

  <text x="992" y="136" fill="#F8FAFC" font-size="26" font-weight="700" font-family="system-ui, -apple-system, BlinkMacSystemFont, Segoe UI, sans-serif">Recover</text>
  <text x="992" y="166" fill="#94A3B8" font-size="15" font-family="system-ui, -apple-system, BlinkMacSystemFont, Segoe UI, sans-serif">Fast rollback and calm restore</text>

  <text x="56" y="222" fill="#64748B" font-size="13" font-family="ui-monospace, SFMono-Regular, Menlo, Monaco, Consolas, Liberation Mono, monospace">measure user impact / make small decisions / delete toil / recover without drama</text>
</svg>
