<svg width="1280" height="260" viewBox="0 0 1280 260" fill="none" xmlns="http://www.w3.org/2000/svg">
  <defs>
    <linearGradient id="bg" x1="40" y1="24" x2="1240" y2="236" gradientUnits="userSpaceOnUse">
      <stop stop-color="#020617"/>
      <stop offset="1" stop-color="#0F172A"/>
    </linearGradient>
    <filter id="blur" x="0" y="0" width="1280" height="260" filterUnits="userSpaceOnUse" color-interpolation-filters="sRGB">
      <feGaussianBlur stdDeviation="28"/>
    </filter>
  </defs>

  <rect x="16" y="16" width="1248" height="228" rx="28" fill="url(#bg)"/>
  <rect x="16.5" y="16.5" width="1247" height="227" rx="27.5" stroke="#1E293B"/>

  <g opacity="0.24">
    <path d="M56 84H1224" stroke="#1E293B"/>
    <path d="M56 142H1224" stroke="#1E293B"/>
    <path d="M56 200H1224" stroke="#1E293B"/>
    <path d="M180 48V212" stroke="#1E293B"/>
    <path d="M372 48V212" stroke="#1E293B"/>
    <path d="M564 48V212" stroke="#1E293B"/>
    <path d="M756 48V212" stroke="#1E293B"/>
    <path d="M948 48V212" stroke="#1E293B"/>
    <path d="M1140 48V212" stroke="#1E293B"/>
  </g>

  <g filter="url(#blur)" opacity="0.62">
    <circle cx="234" cy="206" r="56" fill="#22C55E"/>
    <circle cx="1040" cy="72" r="52" fill="#06B6D4"/>
  </g>

  <text x="56" y="72" fill="#22C55E" font-size="16" font-family="ui-monospace, SFMono-Regular, Menlo, Monaco, Consolas, Liberation Mono, monospace" letter-spacing="2.2">SIGNAL / WHERE THE OUTPUT GOES</text>

  <circle cx="150" cy="154" r="24" fill="#0F172A" stroke="#1E293B"/>
  <text x="114" y="160" fill="#F8FAFC" font-size="14" font-family="ui-monospace, SFMono-Regular, Menlo, Monaco, Consolas, Liberation Mono, monospace">source</text>

  <path d="M174 154H336C386 154 402 104 450 104H664" stroke="#22C55E" stroke-width="3"/>
  <path d="M174 154H392C434 154 452 154 488 154H664" stroke="#06B6D4" stroke-width="3"/>
  <path d="M174 154H336C386 154 402 206 450 206H664" stroke="#F59E0B" stroke-width="3"/>

  <circle cx="686" cy="104" r="10" fill="#22C55E"/>
  <circle cx="686" cy="154" r="10" fill="#06B6D4"/>
  <circle cx="686" cy="206" r="10" fill="#F59E0B"/>

  <path d="M696 104H866" stroke="#22C55E" stroke-width="3"/>
  <path d="M696 154H866" stroke="#06B6D4" stroke-width="3"/>
  <path d="M696 206H866" stroke="#F59E0B" stroke-width="3"/>

  <rect x="866" y="74" width="320" height="52" rx="16" fill="#0F172A" stroke="#1E293B"/>
  <rect x="866" y="128" width="320" height="52" rx="16" fill="#0F172A" stroke="#1E293B"/>
  <rect x="866" y="182" width="320" height="52" rx="16" fill="#0F172A" stroke="#1E293B"/>

  <text x="892" y="95" fill="#64748B" font-size="12" font-family="ui-monospace, SFMono-Regular, Menlo, Monaco, Consolas, Liberation Mono, monospace">writing</text>
  <text x="892" y="114" fill="#F8FAFC" font-size="24" font-weight="700" font-family="system-ui, -apple-system, BlinkMacSystemFont, Segoe UI, sans-serif">inamuu.com</text>

  <text x="892" y="149" fill="#64748B" font-size="12" font-family="ui-monospace, SFMono-Regular, Menlo, Monaco, Consolas, Liberation Mono, monospace">notes</text>
  <text x="892" y="168" fill="#F8FAFC" font-size="24" font-weight="700" font-family="system-ui, -apple-system, BlinkMacSystemFont, Segoe UI, sans-serif">wiki.kazuma.tokyo</text>

  <text x="892" y="203" fill="#64748B" font-size="12" font-family="ui-monospace, SFMono-Regular, Menlo, Monaco, Consolas, Liberation Mono, monospace">social</text>
  <text x="892" y="222" fill="#F8FAFC" font-size="24" font-weight="700" font-family="system-ui, -apple-system, BlinkMacSystemFont, Segoe UI, sans-serif">@kzm0211</text>

  <text x="228" y="110" fill="#64748B" font-size="13" font-family="ui-monospace, SFMono-Regular, Menlo, Monaco, Consolas, Liberation Mono, monospace">long-form posts / references / quick updates</text>
</svg>
