<svg width="1280" height="420" viewBox="0 0 1280 420" fill="none" xmlns="http://www.w3.org/2000/svg">
  <defs>
    <linearGradient id="bg" x1="40" y1="32" x2="1240" y2="388" gradientUnits="userSpaceOnUse">
      <stop stop-color="#020617"/>
      <stop offset="1" stop-color="#0F172A"/>
    </linearGradient>
    <linearGradient id="accent" x1="120" y1="110" x2="620" y2="330" gradientUnits="userSpaceOnUse">
      <stop stop-color="#22C55E" stop-opacity="0.24"/>
      <stop offset="1" stop-color="#06B6D4" stop-opacity="0"/>
    </linearGradient>
    <filter id="blur" x="0" y="0" width="1280" height="420" filterUnits="userSpaceOnUse" color-interpolation-filters="sRGB">
      <feGaussianBlur stdDeviation="36"/>
    </filter>
  </defs>

  <rect x="16" y="16" width="1248" height="388" rx="28" fill="url(#bg)"/>
  <rect x="16.5" y="16.5" width="1247" height="387" rx="27.5" stroke="#1E293B"/>

  <g opacity="0.32">
    <path d="M56 80H1224" stroke="#1E293B"/>
    <path d="M56 132H1224" stroke="#1E293B"/>
    <path d="M56 184H1224" stroke="#1E293B"/>
    <path d="M56 236H1224" stroke="#1E293B"/>
    <path d="M56 288H1224" stroke="#1E293B"/>
    <path d="M56 340H1224" stroke="#1E293B"/>
    <path d="M144 48V372" stroke="#1E293B"/>
    <path d="M252 48V372" stroke="#1E293B"/>
    <path d="M360 48V372" stroke="#1E293B"/>
    <path d="M468 48V372" stroke="#1E293B"/>
    <path d="M576 48V372" stroke="#1E293B"/>
    <path d="M684 48V372" stroke="#1E293B"/>
    <path d="M792 48V372" stroke="#1E293B"/>
    <path d="M900 48V372" stroke="#1E293B"/>
    <path d="M1008 48V372" stroke="#1E293B"/>
    <path d="M1116 48V372" stroke="#1E293B"/>
  </g>

  <g filter="url(#blur)" opacity="0.7">
    <circle cx="340" cy="286" r="86" fill="#22C55E"/>
    <circle cx="1030" cy="128" r="74" fill="#06B6D4"/>
  </g>

  <rect x="56" y="56" width="612" height="308" rx="24" fill="url(#accent)" stroke="#134E4A"/>

  <text x="88" y="102" fill="#22C55E" font-size="18" font-family="ui-monospace, SFMono-Regular, Menlo, Monaco, Consolas, Liberation Mono, monospace" letter-spacing="2.4">INAMUU / CONTROL PLANE</text>
  <text x="88" y="168" fill="#F8FAFC" font-size="50" font-weight="700" font-family="system-ui, -apple-system, BlinkMacSystemFont, Segoe UI, sans-serif">Building calm</text>
  <text x="88" y="224" fill="#F8FAFC" font-size="50" font-weight="700" font-family="system-ui, -apple-system, BlinkMacSystemFont, Segoe UI, sans-serif">systems in production</text>
  <text x="88" y="268" fill="#94A3B8" font-size="20" font-family="system-ui, -apple-system, BlinkMacSystemFont, Segoe UI, sans-serif">Reliability, observability, automation, and boring operations.</text>

  <rect x="88" y="300" width="112" height="30" rx="15" fill="#0F172A" stroke="#1E293B"/>
  <rect x="212" y="300" width="144" height="30" rx="15" fill="#0F172A" stroke="#1E293B"/>
  <rect x="368" y="300" width="78" height="30" rx="15" fill="#0F172A" stroke="#1E293B"/>
  <rect x="458" y="300" width="102" height="30" rx="15" fill="#0F172A" stroke="#1E293B"/>

  <text x="111" y="320" fill="#E2E8F0" font-size="13" font-family="ui-monospace, SFMono-Regular, Menlo, Monaco, Consolas, Liberation Mono, monospace">AWS</text>
  <text x="242" y="320" fill="#E2E8F0" font-size="13" font-family="ui-monospace, SFMono-Regular, Menlo, Monaco, Consolas, Liberation Mono, monospace">KUBERNETES</text>
  <text x="395" y="320" fill="#E2E8F0" font-size="13" font-family="ui-monospace, SFMono-Regular, Menlo, Monaco, Consolas, Liberation Mono, monospace">GO</text>
  <text x="486" y="320" fill="#E2E8F0" font-size="13" font-family="ui-monospace, SFMono-Regular, Menlo, Monaco, Consolas, Liberation Mono, monospace">PYTHON</text>

  <rect x="724" y="70" width="488" height="294" rx="24" fill="#020617" stroke="#1E293B"/>
  <text x="756" y="112" fill="#94A3B8" font-size="15" font-family="ui-monospace, SFMono-Regular, Menlo, Monaco, Consolas, Liberation Mono, monospace">telemetry.live</text>

  <rect x="756" y="136" width="206" height="86" rx="18" fill="#0F172A" stroke="#1E293B"/>
  <rect x="974" y="136" width="206" height="86" rx="18" fill="#0F172A" stroke="#1E293B"/>
  <rect x="756" y="236" width="206" height="86" rx="18" fill="#0F172A" stroke="#1E293B"/>
  <rect x="974" y="236" width="206" height="86" rx="18" fill="#0F172A" stroke="#1E293B"/>

  <text x="780" y="168" fill="#94A3B8" font-size="14" font-family="ui-monospace, SFMono-Regular, Menlo, Monaco, Consolas, Liberation Mono, monospace">mode</text>
  <text x="780" y="206" fill="#22C55E" font-size="34" font-weight="700" font-family="system-ui, -apple-system, BlinkMacSystemFont, Segoe UI, sans-serif">steady</text>

  <text x="998" y="168" fill="#94A3B8" font-size="14" font-family="ui-monospace, SFMono-Regular, Menlo, Monaco, Consolas, Liberation Mono, monospace">slo</text>
  <text x="998" y="206" fill="#F8FAFC" font-size="34" font-weight="700" font-family="system-ui, -apple-system, BlinkMacSystemFont, Segoe UI, sans-serif">99.9%</text>

  <text x="780" y="268" fill="#94A3B8" font-size="14" font-family="ui-monospace, SFMono-Regular, Menlo, Monaco, Consolas, Liberation Mono, monospace">toil</text>
  <text x="780" y="306" fill="#F8FAFC" font-size="34" font-weight="700" font-family="system-ui, -apple-system, BlinkMacSystemFont, Segoe UI, sans-serif">automate</text>

  <text x="998" y="268" fill="#94A3B8" font-size="14" font-family="ui-monospace, SFMono-Regular, Menlo, Monaco, Consolas, Liberation Mono, monospace">region</text>
  <text x="998" y="306" fill="#F8FAFC" font-size="34" font-weight="700" font-family="system-ui, -apple-system, BlinkMacSystemFont, Segoe UI, sans-serif">ap-northeast-1</text>

  <circle cx="756" cy="388" r="4" fill="#22C55E"/>
  <text x="770" y="393" fill="#64748B" font-size="13" font-family="ui-monospace, SFMono-Regular, Menlo, Monaco, Consolas, Liberation Mono, monospace">production-first / reliability-minded / incident-ready</text>
</svg>
