<svg width="1280" height="560" viewBox="0 0 1280 560" fill="none" xmlns="http://www.w3.org/2000/svg">
  <defs>
    <linearGradient id="bg" x1="32" y1="24" x2="1248" y2="536" gradientUnits="userSpaceOnUse">
      <stop stop-color="#020617"/>
      <stop offset="1" stop-color="#0F172A"/>
    </linearGradient>
    <linearGradient id="beam" x1="798" y1="34" x2="1162" y2="374" gradientUnits="userSpaceOnUse">
      <stop stop-color="#06B6D4" stop-opacity="0.92"/>
      <stop offset="1" stop-color="#22C55E" stop-opacity="0"/>
    </linearGradient>
    <filter id="blur" x="0" y="0" width="1280" height="560" filterUnits="userSpaceOnUse" color-interpolation-filters="sRGB">
      <feGaussianBlur stdDeviation="44"/>
    </filter>
  </defs>

  <rect x="16" y="16" width="1248" height="528" rx="32" fill="url(#bg)"/>
  <rect x="16.5" y="16.5" width="1247" height="527" rx="31.5" stroke="#1E293B"/>

  <g opacity="0.24">
    <path d="M56 90H1224" stroke="#1E293B"/>
    <path d="M56 150H1224" stroke="#1E293B"/>
    <path d="M56 210H1224" stroke="#1E293B"/>
    <path d="M56 270H1224" stroke="#1E293B"/>
    <path d="M56 330H1224" stroke="#1E293B"/>
    <path d="M56 390H1224" stroke="#1E293B"/>
    <path d="M56 450H1224" stroke="#1E293B"/>
    <path d="M136 48V512" stroke="#1E293B"/>
    <path d="M256 48V512" stroke="#1E293B"/>
    <path d="M376 48V512" stroke="#1E293B"/>
    <path d="M496 48V512" stroke="#1E293B"/>
    <path d="M616 48V512" stroke="#1E293B"/>
    <path d="M736 48V512" stroke="#1E293B"/>
    <path d="M856 48V512" stroke="#1E293B"/>
    <path d="M976 48V512" stroke="#1E293B"/>
    <path d="M1096 48V512" stroke="#1E293B"/>
  </g>

  <g filter="url(#blur)" opacity="0.78">
    <circle cx="268" cy="414" r="98" fill="#22C55E"/>
    <circle cx="1090" cy="88" r="82" fill="#06B6D4"/>
  </g>

  <path d="M760 40L1234 40L1234 514" fill="url(#beam)" opacity="0.32"/>
  <path d="M716 88L1188 88" stroke="#134E4A" stroke-width="2"/>
  <path d="M716 468L1188 468" stroke="#134E4A" stroke-width="2"/>
  <path d="M756 56L1188 488" stroke="#134E4A" stroke-width="2"/>

  <text x="72" y="88" fill="#22C55E" font-size="18" font-family="ui-monospace, SFMono-Regular, Menlo, Monaco, Consolas, Liberation Mono, monospace" letter-spacing="3">INAMUU / SRE / PLATFORM</text>
  <text x="72" y="194" fill="#F8FAFC" font-size="100" font-weight="800" font-family="system-ui, -apple-system, BlinkMacSystemFont, Segoe UI, sans-serif">KEEP</text>
  <text x="72" y="292" fill="#F8FAFC" font-size="100" font-weight="800" font-family="system-ui, -apple-system, BlinkMacSystemFont, Segoe UI, sans-serif">SYSTEMS</text>
  <text x="72" y="390" fill="#22C55E" font-size="100" font-weight="800" font-family="system-ui, -apple-system, BlinkMacSystemFont, Segoe UI, sans-serif">BORING</text>

  <text x="76" y="432" fill="#94A3B8" font-size="24" font-family="system-ui, -apple-system, BlinkMacSystemFont, Segoe UI, sans-serif">Production-first software engineer in Saitama.</text>
  <text x="76" y="464" fill="#94A3B8" font-size="24" font-family="system-ui, -apple-system, BlinkMacSystemFont, Segoe UI, sans-serif">AWS, Kubernetes, Terraform, observability, and platform automation.</text>

  <rect x="76" y="490" width="104" height="30" rx="15" fill="#0F172A" stroke="#1E293B"/>
  <rect x="190" y="490" width="132" height="30" rx="15" fill="#0F172A" stroke="#1E293B"/>
  <rect x="332" y="490" width="116" height="30" rx="15" fill="#0F172A" stroke="#1E293B"/>
  <rect x="458" y="490" width="120" height="30" rx="15" fill="#0F172A" stroke="#1E293B"/>
  <text x="104" y="510" fill="#E2E8F0" font-size="13" font-family="ui-monospace, SFMono-Regular, Menlo, Monaco, Consolas, Liberation Mono, monospace">AWS</text>
  <text x="220" y="510" fill="#E2E8F0" font-size="13" font-family="ui-monospace, SFMono-Regular, Menlo, Monaco, Consolas, Liberation Mono, monospace">KUBERNETES</text>
  <text x="358" y="510" fill="#E2E8F0" font-size="13" font-family="ui-monospace, SFMono-Regular, Menlo, Monaco, Consolas, Liberation Mono, monospace">TERRAFORM</text>
  <text x="488" y="510" fill="#E2E8F0" font-size="13" font-family="ui-monospace, SFMono-Regular, Menlo, Monaco, Consolas, Liberation Mono, monospace">OBSERVABILITY</text>

  <rect x="770" y="104" width="402" height="316" rx="28" fill="#070D19" stroke="#1E293B"/>
  <text x="808" y="144" fill="#64748B" font-size="14" font-family="ui-monospace, SFMono-Regular, Menlo, Monaco, Consolas, Liberation Mono, monospace">live operator profile</text>

  <rect x="808" y="174" width="146" height="68" rx="18" fill="#0F172A" stroke="#1E293B"/>
  <rect x="988" y="174" width="146" height="68" rx="18" fill="#0F172A" stroke="#1E293B"/>
  <text x="832" y="200" fill="#64748B" font-size="12" font-family="ui-monospace, SFMono-Regular, Menlo, Monaco, Consolas, Liberation Mono, monospace">base</text>
  <text x="832" y="225" fill="#F8FAFC" font-size="28" font-weight="700" font-family="system-ui, -apple-system, BlinkMacSystemFont, Segoe UI, sans-serif">Saitama</text>
  <text x="1012" y="200" fill="#64748B" font-size="12" font-family="ui-monospace, SFMono-Regular, Menlo, Monaco, Consolas, Liberation Mono, monospace">timezone</text>
  <text x="1012" y="225" fill="#F8FAFC" font-size="28" font-weight="700" font-family="system-ui, -apple-system, BlinkMacSystemFont, Segoe UI, sans-serif">JST</text>

  <text x="808" y="286" fill="#64748B" font-size="12" font-family="ui-monospace, SFMono-Regular, Menlo, Monaco, Consolas, Liberation Mono, monospace">bias</text>
  <text x="808" y="318" fill="#22C55E" font-size="42" font-weight="700" font-family="system-ui, -apple-system, BlinkMacSystemFont, Segoe UI, sans-serif">automate toil</text>

  <text x="808" y="352" fill="#64748B" font-size="12" font-family="ui-monospace, SFMono-Regular, Menlo, Monaco, Consolas, Liberation Mono, monospace">release style</text>
  <text x="808" y="382" fill="#F8FAFC" font-size="28" font-weight="700" font-family="system-ui, -apple-system, BlinkMacSystemFont, Segoe UI, sans-serif">small and reversible</text>

  <path d="M808 398H1134" stroke="#1E293B" stroke-width="2"/>
  <path d="M808 398C842 378 878 366 908 376C944 388 964 422 1000 426C1032 430 1060 404 1086 388C1104 376 1120 370 1134 372" stroke="#22C55E" stroke-width="3" fill="none"/>
  <text x="808" y="438" fill="#64748B" font-size="12" font-family="ui-monospace, SFMono-Regular, Menlo, Monaco, Consolas, Liberation Mono, monospace">priority</text>
  <text x="808" y="466" fill="#F8FAFC" font-size="24" font-weight="700" font-family="system-ui, -apple-system, BlinkMacSystemFont, Segoe UI, sans-serif">calm systems under change</text>
</svg>
